<svg xmlns="http://www.w3.org/2000/svg" xmlns:xlink="http://www.w3.org/1999/xlink" contentStyleType="text/css" data-diagram-type="ACTIVITY" height="1135px" preserveAspectRatio="none" style="width:479px;height:1135px;background:#FFFFFF;" version="1.1" viewBox="0 0 479 1135" width="479px" zoomAndPan="magnify"><?plantuml $version$?><defs/><g><g class="title" data-source-line="29"><text fill="#1A1A1A" font-family="'Helvetica'" font-size="16" font-weight="700" lengthAdjust="spacing" textLength="370.7656" x="53.2646" y="35.0078">OOAD lifecycle &#8212; phase sequence (RUP default)</text></g><ellipse cx="217.5712" cy="64.3984" fill="#222222" rx="10" ry="10" style="stroke:#222222;stroke-width:1;"/><path d="M263.472,99.3984 L263.472,107.8728 L243.472,111.8728 L263.472,115.8728 L263.472,124.3472 A0,0 0 0 0 263.472,124.3472 L364.6937,124.3472 A0,0 0 0 0 364.6937,124.3472 L364.6937,109.3984 L354.6937,99.3984 L263.472,99.3984 A0,0 0 0 0 263.472,99.3984" fill="#FFFEF0" style="stroke:#C0C0A0;stroke-width:0.5;"/><path d="M354.6937,99.3984 L354.6937,109.3984 L364.6937,109.3984 L354.6937,99.3984" fill="#FFFEF0" style="stroke:#C0C0A0;stroke-width:0.5;"/><text fill="#000000" font-family="'Helvetica'" font-size="13" lengthAdjust="spacing" textLength="80.2217" x="269.472" y="116.5923">once per repo</text><rect fill="#F9F9F9" height="34.9487" rx="12.5" ry="12.5" style="stroke:#333333;stroke-width:0.5;" width="51.8018" x="191.6703" y="94.3984"/><text fill="#000000" font-family="'Helvetica'" font-size="13" lengthAdjust="spacing" textLength="31.8018" x="201.6703" y="116.5923">setup</text><rect fill="#F9F9F9" height="34.9487" rx="12.5" ry="12.5" style="stroke:#333333;stroke-width:0.5;" width="68.4072" x="183.3676" y="149.3472"/><text fill="#000000" font-family="'Helvetica'" font-size="13" lengthAdjust="spacing" textLength="48.4072" x="193.3676" y="171.541">discover</text><polygon fill="#F9F9F9" points="171.3221,204.2959,263.8202,204.2959,275.8202,216.2959,263.8202,228.2959,171.3221,228.2959,159.3221,216.2959,171.3221,204.2959" style="stroke:#333333;stroke-width:0.5;stroke-linejoin:miter;stroke-miterlimit:10;"/><text fill="#000000" font-family="'Helvetica'" font-size="13" lengthAdjust="spacing" textLength="92.498" x="171.3221" y="221.0154">PRD approved?</text><text fill="#000000" font-family="'Helvetica'" font-size="13" lengthAdjust="spacing" textLength="14.46" x="144.8622" y="213.541">no</text><text fill="#000000" font-family="'Helvetica'" font-size="13" lengthAdjust="spacing" textLength="20.23" x="275.8202" y="213.541">yes</text><polygon fill="#F9F9F9" points="217.5712,257.9739,229.5712,269.9739,217.5712,281.9739,205.5712,269.9739,217.5712,257.9739" style="stroke:#333333;stroke-width:0.5;stroke-linejoin:miter;stroke-miterlimit:10;"/><text fill="#000000" font-family="'Helvetica'" font-size="13" lengthAdjust="spacing" textLength="97.5317" x="108.0394" y="267.219">[revise] :discover</text><rect fill="#F9F9F9" height="34.9487" rx="12.5" ry="12.5" style="stroke:#333333;stroke-width:0.5;" width="95.8672" x="169.6376" y="301.9739"/><text fill="#000000" font-family="'Helvetica'" font-size="13" lengthAdjust="spacing" textLength="75.8672" x="179.6376" y="324.1677">requirements</text><polygon fill="#F9F9F9" points="166.8026,356.9226,268.3397,356.9226,280.3397,368.9226,268.3397,380.9226,166.8026,380.9226,154.8026,368.9226,166.8026,356.9226" style="stroke:#333333;stroke-width:0.5;stroke-linejoin:miter;stroke-miterlimit:10;"/><text fill="#000000" font-family="'Helvetica'" font-size="13" lengthAdjust="spacing" textLength="101.5371" x="166.8026" y="373.6421">Fagan + sign-off?</text><text fill="#000000" font-family="'Helvetica'" font-size="13" lengthAdjust="spacing" textLength="14.46" x="140.3427" y="366.1677">no</text><text fill="#000000" font-family="'Helvetica'" font-size="13" lengthAdjust="spacing" textLength="20.23" x="280.3397" y="366.1677">yes</text><polygon fill="#F9F9F9" points="217.5712,410.6006,229.5712,422.6006,217.5712,434.6006,205.5712,422.6006,217.5712,410.6006" style="stroke:#333333;stroke-width:0.5;stroke-linejoin:miter;stroke-miterlimit:10;"/><text fill="#000000" font-family="'Helvetica'" font-size="13" lengthAdjust="spacing" textLength="103.3145" x="102.2567" y="419.8457">[fix] :requirements</text><rect fill="#F9F9F9" height="34.9487" rx="12.5" ry="12.5" style="stroke:#333333;stroke-width:0.5;" width="69.1309" x="183.0057" y="454.6006"/><text fill="#000000" font-family="'Helvetica'" font-size="13" lengthAdjust="spacing" textLength="49.1309" x="193.0057" y="476.7944">architect</text><polygon fill="#F9F9F9" points="150.3654,509.5493,284.777,509.5493,296.777,521.5493,284.777,533.5493,150.3654,533.5493,138.3654,521.5493,150.3654,509.5493" style="stroke:#333333;stroke-width:0.5;stroke-linejoin:miter;stroke-miterlimit:10;"/><text fill="#000000" font-family="'Helvetica'" font-size="13" lengthAdjust="spacing" textLength="134.4116" x="150.3654" y="526.2688">Architecture approved?</text><text fill="#000000" font-family="'Helvetica'" font-size="13" lengthAdjust="spacing" textLength="14.46" x="123.9054" y="518.7944">no</text><text fill="#000000" font-family="'Helvetica'" font-size="13" lengthAdjust="spacing" textLength="20.23" x="296.777" y="518.7944">yes</text><polygon fill="#F9F9F9" points="217.5712,563.2273,229.5712,575.2273,217.5712,587.2273,205.5712,575.2273,217.5712,563.2273" style="stroke:#333333;stroke-width:0.5;stroke-linejoin:miter;stroke-miterlimit:10;"/><text fill="#000000" font-family="'Helvetica'" font-size="13" lengthAdjust="spacing" textLength="98.2554" x="107.3158" y="572.4724">[revise] :architect</text><rect fill="#F9F9F9" height="34.9487" rx="12.5" ry="12.5" style="stroke:#333333;stroke-width:0.5;" width="47.4663" x="193.838" y="651.2273"/><text fill="#000000" font-family="'Helvetica'" font-size="13" lengthAdjust="spacing" textLength="27.4663" x="203.838" y="673.4211">build</text><rect fill="#F9F9F9" height="34.9487" rx="12.5" ry="12.5" style="stroke:#333333;stroke-width:0.5;" width="51.0591" x="192.0416" y="713.676"/><text fill="#000000" font-family="'Helvetica'" font-size="13" lengthAdjust="spacing" textLength="31.0591" x="202.0416" y="735.8699">verify</text><polygon fill="#F9F9F9" points="217.5712,607.2273,229.5712,619.2273,217.5712,631.2273,205.5712,619.2273,217.5712,607.2273" style="stroke:#333333;stroke-width:0.5;stroke-linejoin:miter;stroke-miterlimit:10;"/><polygon fill="#F9F9F9" points="155.5958,768.6248,279.5465,768.6248,291.5465,780.6248,279.5465,792.6248,155.5958,792.6248,143.5958,780.6248,155.5958,768.6248" style="stroke:#333333;stroke-width:0.5;stroke-linejoin:miter;stroke-miterlimit:10;"/><text fill="#000000" font-family="'Helvetica'" font-size="13" lengthAdjust="spacing" textLength="20.23" x="221.5712" y="804.8186">yes</text><text fill="#000000" font-family="'Helvetica'" font-size="13" lengthAdjust="spacing" textLength="123.9507" x="155.5958" y="785.3442">green + cov &gt;= 80%?</text><text fill="#000000" font-family="'Helvetica'" font-size="13" lengthAdjust="spacing" textLength="79.4917" x="291.5465" y="777.8699">no: fix in build</text><rect fill="#F9F9F9" height="34.9487" rx="12.5" ry="12.5" style="stroke:#333333;stroke-width:0.5;" width="43.8481" x="195.6471" y="826.3186"/><text fill="#000000" font-family="'Helvetica'" font-size="13" lengthAdjust="spacing" textLength="23.8481" x="205.6471" y="848.5125">ship</text><ellipse cx="217.5712" cy="892.2673" fill="none" rx="11" ry="11" style="stroke:#222222;stroke-width:1;"/><ellipse cx="217.5712" cy="892.2673" fill="#222222" rx="6" ry="6" style="stroke:#222222;stroke-width:1;"/><line style="stroke:#333333;stroke-width:1;" x1="217.5712" x2="217.5712" y1="74.3984" y2="94.3984"/><polygon fill="#333333" points="213.5712,84.3984,217.5712,94.3984,221.5712,84.3984,217.5712,88.3984" style="stroke:#333333;stroke-width:1;stroke-linejoin:miter;stroke-miterlimit:10;"/><line style="stroke:#333333;stroke-width:1;" x1="217.5712" x2="217.5712" y1="129.3472" y2="149.3472"/><polygon fill="#333333" points="213.5712,139.3472,217.5712,149.3472,221.5712,139.3472,217.5712,143.3472" style="stroke:#333333;stroke-width:1;stroke-linejoin:miter;stroke-miterlimit:10;"/><line style="stroke:#333333;stroke-width:1;" x1="159.3221" x2="149.3221" y1="216.2959" y2="216.2959"/><polygon fill="#333333" points="145.3221,233.7703,149.3221,243.7703,153.3221,233.7703,149.3221,237.7703" style="stroke:#333333;stroke-width:1;stroke-linejoin:miter;stroke-miterlimit:10;"/><line style="stroke:#333333;stroke-width:1;" x1="149.3221" x2="149.3221" y1="216.2959" y2="269.9739"/><line style="stroke:#333333;stroke-width:1;" x1="149.3221" x2="205.5712" y1="269.9739" y2="269.9739"/><polygon fill="#333333" points="195.5712,265.9739,205.5712,269.9739,195.5712,273.9739,199.5712,269.9739" style="stroke:#333333;stroke-width:1;stroke-linejoin:miter;stroke-miterlimit:10;"/><line style="stroke:#333333;stroke-width:1;" x1="275.8202" x2="285.8202" y1="216.2959" y2="216.2959"/><polygon fill="#333333" points="281.8202,233.7703,285.8202,243.7703,289.8202,233.7703,285.8202,237.7703" style="stroke:#333333;stroke-width:1;stroke-linejoin:miter;stroke-miterlimit:10;"/><line style="stroke:#333333;stroke-width:1;" x1="285.8202" x2="285.8202" y1="216.2959" y2="269.9739"/><line style="stroke:#333333;stroke-width:1;" x1="285.8202" x2="229.5712" y1="269.9739" y2="269.9739"/><polygon fill="#333333" points="239.5712,265.9739,229.5712,269.9739,239.5712,273.9739,235.5712,269.9739" style="stroke:#333333;stroke-width:1;stroke-linejoin:miter;stroke-miterlimit:10;"/><line style="stroke:#333333;stroke-width:1;" x1="217.5712" x2="217.5712" y1="184.2959" y2="204.2959"/><polygon fill="#333333" points="213.5712,194.2959,217.5712,204.2959,221.5712,194.2959,217.5712,198.2959" style="stroke:#333333;stroke-width:1;stroke-linejoin:miter;stroke-miterlimit:10;"/><line style="stroke:#333333;stroke-width:1;" x1="217.5712" x2="217.5712" y1="281.9739" y2="301.9739"/><polygon fill="#333333" points="213.5712,291.9739,217.5712,301.9739,221.5712,291.9739,217.5712,295.9739" style="stroke:#333333;stroke-width:1;stroke-linejoin:miter;stroke-miterlimit:10;"/><line style="stroke:#333333;stroke-width:1;" x1="154.8026" x2="144.8026" y1="368.9226" y2="368.9226"/><polygon fill="#333333" points="140.8026,386.397,144.8026,396.397,148.8026,386.397,144.8026,390.397" style="stroke:#333333;stroke-width:1;stroke-linejoin:miter;stroke-miterlimit:10;"/><line style="stroke:#333333;stroke-width:1;" x1="144.8026" x2="144.8026" y1="368.9226" y2="422.6006"/><line style="stroke:#333333;stroke-width:1;" x1="144.8026" x2="205.5712" y1="422.6006" y2="422.6006"/><polygon fill="#333333" points="195.5712,418.6006,205.5712,422.6006,195.5712,426.6006,199.5712,422.6006" style="stroke:#333333;stroke-width:1;stroke-linejoin:miter;stroke-miterlimit:10;"/><line style="stroke:#333333;stroke-width:1;" x1="280.3397" x2="290.3397" y1="368.9226" y2="368.9226"/><polygon fill="#333333" points="286.3397,386.397,290.3397,396.397,294.3397,386.397,290.3397,390.397" style="stroke:#333333;stroke-width:1;stroke-linejoin:miter;stroke-miterlimit:10;"/><line style="stroke:#333333;stroke-width:1;" x1="290.3397" x2="290.3397" y1="368.9226" y2="422.6006"/><line style="stroke:#333333;stroke-width:1;" x1="290.3397" x2="229.5712" y1="422.6006" y2="422.6006"/><polygon fill="#333333" points="239.5712,418.6006,229.5712,422.6006,239.5712,426.6006,235.5712,422.6006" style="stroke:#333333;stroke-width:1;stroke-linejoin:miter;stroke-miterlimit:10;"/><line style="stroke:#333333;stroke-width:1;" x1="217.5712" x2="217.5712" y1="336.9226" y2="356.9226"/><polygon fill="#333333" points="213.5712,346.9226,217.5712,356.9226,221.5712,346.9226,217.5712,350.9226" style="stroke:#333333;stroke-width:1;stroke-linejoin:miter;stroke-miterlimit:10;"/><line style="stroke:#333333;stroke-width:1;" x1="217.5712" x2="217.5712" y1="434.6006" y2="454.6006"/><polygon fill="#333333" points="213.5712,444.6006,217.5712,454.6006,221.5712,444.6006,217.5712,448.6006" style="stroke:#333333;stroke-width:1;stroke-linejoin:miter;stroke-miterlimit:10;"/><line style="stroke:#333333;stroke-width:1;" x1="138.3654" x2="128.3654" y1="521.5493" y2="521.5493"/><polygon fill="#333333" points="124.3654,539.0237,128.3654,549.0237,132.3654,539.0237,128.3654,543.0237" style="stroke:#333333;stroke-width:1;stroke-linejoin:miter;stroke-miterlimit:10;"/><line style="stroke:#333333;stroke-width:1;" x1="128.3654" x2="128.3654" y1="521.5493" y2="575.2273"/><line style="stroke:#333333;stroke-width:1;" x1="128.3654" x2="205.5712" y1="575.2273" y2="575.2273"/><polygon fill="#333333" points="195.5712,571.2273,205.5712,575.2273,195.5712,579.2273,199.5712,575.2273" style="stroke:#333333;stroke-width:1;stroke-linejoin:miter;stroke-miterlimit:10;"/><line style="stroke:#333333;stroke-width:1;" x1="296.777" x2="306.777" y1="521.5493" y2="521.5493"/><polygon fill="#333333" points="302.777,539.0237,306.777,549.0237,310.777,539.0237,306.777,543.0237" style="stroke:#333333;stroke-width:1;stroke-linejoin:miter;stroke-miterlimit:10;"/><line style="stroke:#333333;stroke-width:1;" x1="306.777" x2="306.777" y1="521.5493" y2="575.2273"/><line style="stroke:#333333;stroke-width:1;" x1="306.777" x2="229.5712" y1="575.2273" y2="575.2273"/><polygon fill="#333333" points="239.5712,571.2273,229.5712,575.2273,239.5712,579.2273,235.5712,575.2273" style="stroke:#333333;stroke-width:1;stroke-linejoin:miter;stroke-miterlimit:10;"/><line style="stroke:#333333;stroke-width:1;" x1="217.5712" x2="217.5712" y1="489.5493" y2="509.5493"/><polygon fill="#333333" points="213.5712,499.5493,217.5712,509.5493,221.5712,499.5493,217.5712,503.5493" style="stroke:#333333;stroke-width:1;stroke-linejoin:miter;stroke-miterlimit:10;"/><line style="stroke:#333333;stroke-width:1;" x1="217.5712" x2="217.5712" y1="686.176" y2="713.676"/><polygon fill="#333333" points="213.5712,703.676,217.5712,713.676,221.5712,703.676,217.5712,707.676" style="stroke:#333333;stroke-width:1;stroke-linejoin:miter;stroke-miterlimit:10;"/><line style="stroke:#333333;stroke-width:1;" x1="217.5712" x2="217.5712" y1="631.2273" y2="651.2273"/><polygon fill="#333333" points="213.5712,641.2273,217.5712,651.2273,221.5712,641.2273,217.5712,645.2273" style="stroke:#333333;stroke-width:1;stroke-linejoin:miter;stroke-miterlimit:10;"/><line style="stroke:#333333;stroke-width:1;" x1="291.5465" x2="303.5465" y1="780.6248" y2="780.6248"/><polygon fill="#333333" points="299.5465,706.176,303.5465,696.176,307.5465,706.176,303.5465,702.176" style="stroke:#333333;stroke-width:1;stroke-linejoin:miter;stroke-miterlimit:10;"/><line style="stroke:#333333;stroke-width:1;" x1="303.5465" x2="303.5465" y1="619.2273" y2="780.6248"/><line style="stroke:#333333;stroke-width:1;" x1="303.5465" x2="229.5712" y1="619.2273" y2="619.2273"/><polygon fill="#333333" points="239.5712,615.2273,229.5712,619.2273,239.5712,623.2273,235.5712,619.2273" style="stroke:#333333;stroke-width:1;stroke-linejoin:miter;stroke-miterlimit:10;"/><line style="stroke:#333333;stroke-width:1;" x1="217.5712" x2="217.5712" y1="748.6248" y2="768.6248"/><polygon fill="#333333" points="213.5712,758.6248,217.5712,768.6248,221.5712,758.6248,217.5712,762.6248" style="stroke:#333333;stroke-width:1;stroke-linejoin:miter;stroke-miterlimit:10;"/><line style="stroke:#333333;stroke-width:1;" x1="217.5712" x2="217.5712" y1="587.2273" y2="607.2273"/><polygon fill="#333333" points="213.5712,597.2273,217.5712,607.2273,221.5712,597.2273,217.5712,601.2273" style="stroke:#333333;stroke-width:1;stroke-linejoin:miter;stroke-miterlimit:10;"/><line style="stroke:#333333;stroke-width:1;" x1="217.5712" x2="217.5712" y1="792.6248" y2="826.3186"/><polygon fill="#333333" points="213.5712,816.3186,217.5712,826.3186,221.5712,816.3186,217.5712,820.3186" style="stroke:#333333;stroke-width:1;stroke-linejoin:miter;stroke-miterlimit:10;"/><line style="stroke:#333333;stroke-width:1;" x1="217.5712" x2="217.5712" y1="861.2673" y2="881.2673"/><polygon fill="#333333" points="213.5712,871.2673,217.5712,881.2673,221.5712,871.2673,217.5712,875.2673" style="stroke:#333333;stroke-width:1;stroke-linejoin:miter;stroke-miterlimit:10;"/><g class="legend" data-source-line="68"><rect fill="#FFFEF0" height="174.9863" rx="7.5" ry="7.5" style="stroke:#C0C0A0;stroke-width:1;" width="433.2949" x="22" y="924.2673"/><text fill="#000000" font-family="'Helvetica'" font-size="14" font-weight="700" lengthAdjust="spacing" textLength="36.5654" x="30.8896" y="944.3992">Label</text><text fill="#000000" font-family="'Helvetica'" font-size="14" font-weight="700" lengthAdjust="spacing" textLength="48.2275" x="120.3721" y="944.3992">Trigger</text><text fill="#000000" font-family="'Helvetica'" font-size="14" lengthAdjust="spacing" textLength="34.248" x="30.8896" y="960.4978">setup</text><text fill="#000000" font-family="'Helvetica'" font-size="14" lengthAdjust="spacing" textLength="117.5166" x="120.3721" y="960.4978">/setup-ooad (once)</text><text fill="#000000" font-family="'Helvetica'" font-size="14" lengthAdjust="spacing" textLength="52.1309" x="30.8896" y="976.5964">discover</text><text fill="#000000" font-family="'Helvetica'" font-size="14" lengthAdjust="spacing" textLength="91.8271" x="120.3721" y="976.5964">/ooad-discover</text><text fill="#000000" font-family="'Helvetica'" font-size="14" lengthAdjust="spacing" textLength="81.7031" x="30.8896" y="992.6951">requirements</text><text fill="#000000" font-family="'Helvetica'" font-size="14" lengthAdjust="spacing" textLength="121.3994" x="120.3721" y="992.6951">/ooad-requirements</text><text fill="#000000" font-family="'Helvetica'" font-size="14" lengthAdjust="spacing" textLength="52.9102" x="30.8896" y="1008.7937">architect</text><text fill="#000000" font-family="'Helvetica'" font-size="14" lengthAdjust="spacing" textLength="92.6064" x="120.3721" y="1008.7937">/ooad-architect</text><text fill="#000000" font-family="'Helvetica'" font-size="14" lengthAdjust="spacing" textLength="29.5791" x="30.8896" y="1024.8923">build</text><text fill="#000000" font-family="'Helvetica'" font-size="14" lengthAdjust="spacing" textLength="69.2754" x="120.3721" y="1024.8923">/ooad-build</text><text fill="#000000" font-family="'Helvetica'" font-size="14" lengthAdjust="spacing" textLength="33.4482" x="30.8896" y="1040.991">verify</text><text fill="#000000" font-family="'Helvetica'" font-size="14" lengthAdjust="spacing" textLength="73.1445" x="120.3721" y="1040.991">/ooad-verify</text><text fill="#000000" font-family="'Helvetica'" font-size="14" lengthAdjust="spacing" textLength="25.6826" x="30.8896" y="1057.0896">ship</text><text fill="#000000" font-family="'Helvetica'" font-size="14" lengthAdjust="spacing" textLength="65.3789" x="120.3721" y="1057.0896">/ooad-ship</text><line style="stroke:#000000;stroke-width:1;" x1="27" x2="245.6611" y1="931.2673" y2="931.2673"/><line style="stroke:#000000;stroke-width:1;" x1="27" x2="245.6611" y1="947.366" y2="947.366"/><line style="stroke:#000000;stroke-width:1;" x1="27" x2="245.6611" y1="963.4646" y2="963.4646"/><line style="stroke:#000000;stroke-width:1;" x1="27" x2="245.6611" y1="979.5632" y2="979.5632"/><line style="stroke:#000000;stroke-width:1;" x1="27" x2="245.6611" y1="995.6619" y2="995.6619"/><line style="stroke:#000000;stroke-width:1;" x1="27" x2="245.6611" y1="1011.7605" y2="1011.7605"/><line style="stroke:#000000;stroke-width:1;" x1="27" x2="245.6611" y1="1027.8591" y2="1027.8591"/><line style="stroke:#000000;stroke-width:1;" x1="27" x2="245.6611" y1="1043.9578" y2="1043.9578"/><line style="stroke:#000000;stroke-width:1;" x1="27" x2="245.6611" y1="1060.0564" y2="1060.0564"/><line style="stroke:#000000;stroke-width:1;" x1="27" x2="27" y1="931.2673" y2="1060.0564"/><line style="stroke:#000000;stroke-width:1;" x1="116.4824" x2="116.4824" y1="931.2673" y2="1060.0564"/><line style="stroke:#000000;stroke-width:1;" x1="245.6611" x2="245.6611" y1="931.2673" y2="1060.0564"/><ellipse cx="32.5" cy="1070.655" fill="#000000" rx="2.5" ry="2.5"/><text fill="#000000" font-family="'Helvetica'" font-size="14" lengthAdjust="spacing" textLength="374.2676" x="39" y="1075.1882">Boxes abbreviate the prefix; copy triggers from the Skills list.</text><text fill="#000000" font-family="'Helvetica'" font-size="14" lengthAdjust="spacing" textLength="423.2949" x="27" y="1091.2869">RUP iterates, Waterfall runs once end-to-end, Agile slices per sprint.</text></g><g class="footer" data-source-line="81"><text fill="#888888" font-family="'Helvetica'" font-size="10" lengthAdjust="spacing" textLength="436.2744" x="20.5103" y="1121.6335">OOAD-workflow docs/diagrams/lifecycle.puml &#8212; boxes = literal trigger stems, legend = full triggers</text></g><?plantuml-src fLJDRjD04BxlKuoAK1E8srIL42HAKVeJzG2qIa4S48UDFRPNsUoQtNNQG91u29wG9s5sOxjEMX0Izi7UcTblVh_P1obIZ5UnHFZruoTSNOtFeSYvHR3ufKGL8tGIOGl9Ls1pRLpELT83PqIMeR4W54ZCK2Nm7AONu_Et5n3pmWcjkcmVfgH0Cm2whbova10vkymWqR4zJ0JF35_OmoQ2Wu9CwDQflWF9PoWjS8CKeKF3PUqJhCE57L1yhYnW18VX9zAQKrmKQgoNP4HoBubgGG_GnGUCsRbG1IU_CEFnF3EwLCcPbjh0aqbuMXO9fhoKRgALUySN27kNA9VeHCpt7hUw4LyHZevRIXuxiHHk1TyOmEa3Zw_ywpNQK9qgwN5uI3esHjzk2x-ti9Ls-0VSoUHYqj_5FUkVzSVzBGWddDnWt8V_eZfLjux6_jswLJNy_rnpdrp0sCsGRQ8AexWzdRk3EVrmNPU_Iwrrt3Z61c4UXYoKXqOcT-H3U_k2vi9WePcFtgl9k9wF8MCYXSxrz1nuKHWI9Q-xu79Kq56wIn3HoIU3Is7nCxHkqP1I82kqNOygKe8q59ymk43bR0KxuHbNn10hCXNfD7q8dOexmjs--WWsDt5ET8XT1JokpoKHvHy2Rzr_Y4wrGUwhDPYLGYP3_qT9YdGrh7HmcmlgHISpY3uVAWASZE1b_odv5DPx702bujT2mEZwEbTUg3EveCPGetJ1M3L5TOVM8tZZEUz_tbTCNtjvHVHrc-ZGyGtjLWODwTSxfA_qxQesDjl2ODSKfp5gIO95oAdHLgUWsTIfKTN7JGAKTgFP74Z-pEyvf1Ktc_dsS9fMwXeK1gc0GofjiRfViwdHYw2-cGj9Ur4Awmu8n3CWh4U7jWSVwMDIBYMOKjdDq5ED8wSZz5jxdFdkMIbYyklPO0iZ506HTjCEnb9Dn321VT6jDlDK4at_jh03CsSXbT7ZkxfNRumHfALibFOt?></g></svg>